<mxfile host="Electron" agent="Mozilla/5.0 (Windows NT 10.0; Win64; x64) AppleWebKit/537.36 (KHTML, like Gecko) draw.io/24.7.5 Chrome/126.0.6478.183 Electron/31.3.0 Safari/537.36" version="24.7.5">
  <diagram name="Page-1" id="FHE4nbcQYihFI8lNNAlr">
    <mxGraphModel dx="745" dy="431" grid="1" gridSize="10" guides="1" tooltips="1" connect="1" arrows="1" fold="1" page="1" pageScale="1" pageWidth="850" pageHeight="1100" math="0" shadow="0">
      <root>
        <mxCell id="0" />
        <mxCell id="1" parent="0" />
        <mxCell id="MbUVOhgkBin-veVdJaiQ-1" value="" style="rounded=0;whiteSpace=wrap;html=1;" parent="1" vertex="1">
          <mxGeometry x="150" y="200" width="600" height="400" as="geometry" />
        </mxCell>
        <mxCell id="MbUVOhgkBin-veVdJaiQ-2" value="Start" style="text;html=1;align=center;verticalAlign=middle;resizable=0;points=[];autosize=1;strokeColor=none;fillColor=none;" parent="1" vertex="1">
          <mxGeometry x="150" y="200" width="50" height="30" as="geometry" />
        </mxCell>
        <mxCell id="MbUVOhgkBin-veVdJaiQ-3" value="" style="ellipse;whiteSpace=wrap;html=1;aspect=fixed;fillColor=#dae8fc;strokeColor=#6c8ebf;" parent="1" vertex="1">
          <mxGeometry x="200" y="205" width="20" height="20" as="geometry" />
        </mxCell>
        <mxCell id="MbUVOhgkBin-veVdJaiQ-4" value="Stop" style="text;html=1;align=center;verticalAlign=middle;resizable=0;points=[];autosize=1;strokeColor=none;fillColor=none;" parent="1" vertex="1">
          <mxGeometry x="220" y="200" width="50" height="30" as="geometry" />
        </mxCell>
        <mxCell id="MbUVOhgkBin-veVdJaiQ-5" value="" style="ellipse;whiteSpace=wrap;html=1;aspect=fixed;fillColor=#dae8fc;strokeColor=#6c8ebf;" parent="1" vertex="1">
          <mxGeometry x="270" y="205" width="20" height="20" as="geometry" />
        </mxCell>
        <mxCell id="MbUVOhgkBin-veVdJaiQ-8" value="Pitch" style="text;html=1;align=center;verticalAlign=middle;resizable=0;points=[];autosize=1;strokeColor=none;fillColor=none;" parent="1" vertex="1">
          <mxGeometry x="150" y="230" width="50" height="30" as="geometry" />
        </mxCell>
        <mxCell id="MbUVOhgkBin-veVdJaiQ-9" value="XXX" style="rounded=0;whiteSpace=wrap;html=1;fillColor=#e1d5e7;strokeColor=#9673a6;" parent="1" vertex="1">
          <mxGeometry x="200" y="235" width="40" height="20" as="geometry" />
        </mxCell>
        <mxCell id="MbUVOhgkBin-veVdJaiQ-10" value="Set" style="rounded=0;whiteSpace=wrap;html=1;fillColor=#dae8fc;strokeColor=#6c8ebf;" parent="1" vertex="1">
          <mxGeometry x="250" y="235" width="30" height="20" as="geometry" />
        </mxCell>
        <mxCell id="MbUVOhgkBin-veVdJaiQ-11" value="Speed" style="text;html=1;align=center;verticalAlign=middle;resizable=0;points=[];autosize=1;strokeColor=none;fillColor=none;" parent="1" vertex="1">
          <mxGeometry x="145" y="255" width="60" height="30" as="geometry" />
        </mxCell>
        <mxCell id="MbUVOhgkBin-veVdJaiQ-12" value="XXX" style="rounded=0;whiteSpace=wrap;html=1;fillColor=#e1d5e7;strokeColor=#9673a6;" parent="1" vertex="1">
          <mxGeometry x="200" y="260" width="40" height="20" as="geometry" />
        </mxCell>
        <mxCell id="MbUVOhgkBin-veVdJaiQ-13" value="Set" style="rounded=0;whiteSpace=wrap;html=1;fillColor=#dae8fc;strokeColor=#6c8ebf;" parent="1" vertex="1">
          <mxGeometry x="250" y="260" width="30" height="20" as="geometry" />
        </mxCell>
        <mxCell id="MbUVOhgkBin-veVdJaiQ-15" value="" style="shape=offPageConnector;whiteSpace=wrap;html=1;fillColor=#dae8fc;strokeColor=#6c8ebf;" parent="1" vertex="1">
          <mxGeometry x="245" y="420" width="25" height="30" as="geometry" />
        </mxCell>
        <mxCell id="MbUVOhgkBin-veVdJaiQ-16" value="Backwards" style="text;html=1;align=center;verticalAlign=middle;resizable=0;points=[];autosize=1;strokeColor=none;fillColor=none;" parent="1" vertex="1">
          <mxGeometry x="220" y="440" width="80" height="30" as="geometry" />
        </mxCell>
        <mxCell id="MbUVOhgkBin-veVdJaiQ-17" value="Hover" style="ellipse;whiteSpace=wrap;html=1;aspect=fixed;fillColor=#dae8fc;strokeColor=#6c8ebf;" parent="1" vertex="1">
          <mxGeometry x="237.5" y="370" width="40" height="40" as="geometry" />
        </mxCell>
        <mxCell id="MbUVOhgkBin-veVdJaiQ-18" value="" style="shape=offPageConnector;whiteSpace=wrap;html=1;rotation=-180;fillColor=#dae8fc;strokeColor=#6c8ebf;" parent="1" vertex="1">
          <mxGeometry x="245" y="330" width="25" height="30" as="geometry" />
        </mxCell>
        <mxCell id="MbUVOhgkBin-veVdJaiQ-19" value="Forward" style="text;html=1;align=center;verticalAlign=middle;resizable=0;points=[];autosize=1;strokeColor=none;fillColor=none;" parent="1" vertex="1">
          <mxGeometry x="225" y="300" width="70" height="30" as="geometry" />
        </mxCell>
        <mxCell id="MbUVOhgkBin-veVdJaiQ-20" value="" style="shape=offPageConnector;whiteSpace=wrap;html=1;rotation=-90;fillColor=#dae8fc;strokeColor=#6c8ebf;" parent="1" vertex="1">
          <mxGeometry x="290" y="375" width="25" height="30" as="geometry" />
        </mxCell>
        <mxCell id="MbUVOhgkBin-veVdJaiQ-21" value="Left" style="text;html=1;align=center;verticalAlign=middle;resizable=0;points=[];autosize=1;strokeColor=none;fillColor=none;" parent="1" vertex="1">
          <mxGeometry x="315" y="375" width="40" height="30" as="geometry" />
        </mxCell>
        <mxCell id="MbUVOhgkBin-veVdJaiQ-22" value="" style="shape=offPageConnector;whiteSpace=wrap;html=1;rotation=90;fillColor=#dae8fc;strokeColor=#6c8ebf;" parent="1" vertex="1">
          <mxGeometry x="200" y="375" width="25" height="30" as="geometry" />
        </mxCell>
        <mxCell id="MbUVOhgkBin-veVdJaiQ-23" value="Right" style="text;html=1;align=center;verticalAlign=middle;resizable=0;points=[];autosize=1;strokeColor=none;fillColor=none;" parent="1" vertex="1">
          <mxGeometry x="150" y="375" width="50" height="30" as="geometry" />
        </mxCell>
        <mxCell id="MbUVOhgkBin-veVdJaiQ-24" value="" style="rounded=0;whiteSpace=wrap;html=1;fillColor=#fff2cc;strokeColor=#d6b656;" parent="1" vertex="1">
          <mxGeometry x="530" y="300" width="210" height="120" as="geometry" />
        </mxCell>
        <mxCell id="MbUVOhgkBin-veVdJaiQ-25" value="Current Speed" style="text;html=1;align=center;verticalAlign=middle;resizable=0;points=[];autosize=1;strokeColor=none;fillColor=none;" parent="1" vertex="1">
          <mxGeometry x="460" y="205" width="100" height="30" as="geometry" />
        </mxCell>
        <mxCell id="MbUVOhgkBin-veVdJaiQ-26" value="XXX" style="rounded=0;whiteSpace=wrap;html=1;fillColor=#fff2cc;strokeColor=#d6b656;" parent="1" vertex="1">
          <mxGeometry x="560" y="210" width="40" height="20" as="geometry" />
        </mxCell>
        <mxCell id="MbUVOhgkBin-veVdJaiQ-27" value="Target Speed" style="text;html=1;align=center;verticalAlign=middle;resizable=0;points=[];autosize=1;strokeColor=none;fillColor=none;" parent="1" vertex="1">
          <mxGeometry x="465" y="230" width="90" height="30" as="geometry" />
        </mxCell>
        <mxCell id="MbUVOhgkBin-veVdJaiQ-28" value="XXX" style="rounded=0;whiteSpace=wrap;html=1;fillColor=#fff2cc;strokeColor=#d6b656;" parent="1" vertex="1">
          <mxGeometry x="560" y="235" width="40" height="20" as="geometry" />
        </mxCell>
        <mxCell id="MbUVOhgkBin-veVdJaiQ-29" value="" style="rounded=0;whiteSpace=wrap;html=1;fillColor=#fff2cc;strokeColor=#d6b656;" parent="1" vertex="1">
          <mxGeometry x="530" y="465" width="210" height="120" as="geometry" />
        </mxCell>
        <mxCell id="MbUVOhgkBin-veVdJaiQ-30" value="" style="rounded=0;whiteSpace=wrap;html=1;fillColor=#fff2cc;strokeColor=#d6b656;" parent="1" vertex="1">
          <mxGeometry x="172.5" y="500" width="215" height="80" as="geometry" />
        </mxCell>
        <mxCell id="MbUVOhgkBin-veVdJaiQ-31" value="Calibrate Pitch" style="text;html=1;align=center;verticalAlign=middle;resizable=0;points=[];autosize=1;strokeColor=none;fillColor=none;" parent="1" vertex="1">
          <mxGeometry x="397.13" y="537.5" width="100" height="30" as="geometry" />
        </mxCell>
        <mxCell id="MbUVOhgkBin-veVdJaiQ-32" value="" style="ellipse;whiteSpace=wrap;html=1;aspect=fixed;fillColor=#dae8fc;strokeColor=#6c8ebf;" parent="1" vertex="1">
          <mxGeometry x="497.13" y="542.5" width="20" height="20" as="geometry" />
        </mxCell>
        <mxCell id="MbUVOhgkBin-veVdJaiQ-33" value="XXX" style="rounded=0;whiteSpace=wrap;html=1;fillColor=#fff2cc;strokeColor=#d6b656;" parent="1" vertex="1">
          <mxGeometry x="700" y="235" width="40" height="20" as="geometry" />
        </mxCell>
        <mxCell id="MbUVOhgkBin-veVdJaiQ-34" value="Target Pitch" style="text;html=1;align=center;verticalAlign=middle;resizable=0;points=[];autosize=1;strokeColor=none;fillColor=none;" parent="1" vertex="1">
          <mxGeometry x="605" y="230" width="90" height="30" as="geometry" />
        </mxCell>
        <mxCell id="MbUVOhgkBin-veVdJaiQ-35" value="XXX" style="rounded=0;whiteSpace=wrap;html=1;fillColor=#fff2cc;strokeColor=#d6b656;" parent="1" vertex="1">
          <mxGeometry x="700" y="210" width="40" height="20" as="geometry" />
        </mxCell>
        <mxCell id="MbUVOhgkBin-veVdJaiQ-36" value="Current Pitch" style="text;html=1;align=center;verticalAlign=middle;resizable=0;points=[];autosize=1;strokeColor=none;fillColor=none;" parent="1" vertex="1">
          <mxGeometry x="605" y="205" width="90" height="30" as="geometry" />
        </mxCell>
        <mxCell id="MbUVOhgkBin-veVdJaiQ-39" value="Pitch" style="text;html=1;align=center;verticalAlign=middle;resizable=0;points=[];autosize=1;strokeColor=none;fillColor=none;" parent="1" vertex="1">
          <mxGeometry x="530" y="430" width="50" height="30" as="geometry" />
        </mxCell>
        <mxCell id="MbUVOhgkBin-veVdJaiQ-40" value="Speed" style="text;html=1;align=center;verticalAlign=middle;resizable=0;points=[];autosize=1;strokeColor=none;fillColor=none;" parent="1" vertex="1">
          <mxGeometry x="530" y="270" width="60" height="30" as="geometry" />
        </mxCell>
        <mxCell id="MbUVOhgkBin-veVdJaiQ-48" value="Rotor 2" style="text;html=1;align=center;verticalAlign=middle;resizable=0;points=[];autosize=1;strokeColor=none;fillColor=none;" parent="1" vertex="1">
          <mxGeometry x="425" y="385" width="60" height="30" as="geometry" />
        </mxCell>
        <mxCell id="MbUVOhgkBin-veVdJaiQ-50" value="&lt;font style=&quot;font-size: 9px;&quot;&gt;Top Motor Power&lt;/font&gt;" style="text;html=1;align=center;verticalAlign=middle;resizable=0;points=[];autosize=1;strokeColor=none;fillColor=none;" parent="1" vertex="1">
          <mxGeometry x="327" y="410" width="90" height="30" as="geometry" />
        </mxCell>
        <mxCell id="MbUVOhgkBin-veVdJaiQ-51" value="" style="rounded=0;whiteSpace=wrap;html=1;" parent="1" vertex="1">
          <mxGeometry x="425" y="420" width="80" height="10" as="geometry" />
        </mxCell>
        <mxCell id="MbUVOhgkBin-veVdJaiQ-52" value="&lt;font style=&quot;font-size: 9px;&quot;&gt;Bottom Motor Power&lt;/font&gt;" style="text;html=1;align=center;verticalAlign=middle;resizable=0;points=[];autosize=1;strokeColor=none;fillColor=none;" parent="1" vertex="1">
          <mxGeometry x="325" y="430" width="110" height="30" as="geometry" />
        </mxCell>
        <mxCell id="MbUVOhgkBin-veVdJaiQ-53" value="" style="rounded=0;whiteSpace=wrap;html=1;" parent="1" vertex="1">
          <mxGeometry x="425" y="440" width="80" height="10" as="geometry" />
        </mxCell>
        <mxCell id="MbUVOhgkBin-veVdJaiQ-54" value="" style="rounded=0;whiteSpace=wrap;html=1;" parent="1" vertex="1">
          <mxGeometry x="427" y="350" width="80" height="10" as="geometry" />
        </mxCell>
        <mxCell id="MbUVOhgkBin-veVdJaiQ-55" value="&lt;font style=&quot;font-size: 9px;&quot;&gt;Bottom Motor Power&lt;/font&gt;" style="text;html=1;align=center;verticalAlign=middle;resizable=0;points=[];autosize=1;strokeColor=none;fillColor=none;" parent="1" vertex="1">
          <mxGeometry x="327" y="340" width="110" height="30" as="geometry" />
        </mxCell>
        <mxCell id="MbUVOhgkBin-veVdJaiQ-56" value="&lt;font style=&quot;font-size: 9px;&quot;&gt;Top Motor Power&lt;/font&gt;" style="text;html=1;align=center;verticalAlign=middle;resizable=0;points=[];autosize=1;strokeColor=none;fillColor=none;" parent="1" vertex="1">
          <mxGeometry x="329" y="320" width="90" height="30" as="geometry" />
        </mxCell>
        <mxCell id="MbUVOhgkBin-veVdJaiQ-57" value="" style="rounded=0;whiteSpace=wrap;html=1;" parent="1" vertex="1">
          <mxGeometry x="427" y="330" width="80" height="10" as="geometry" />
        </mxCell>
        <mxCell id="MbUVOhgkBin-veVdJaiQ-58" value="Rotor 1" style="text;html=1;align=center;verticalAlign=middle;resizable=0;points=[];autosize=1;strokeColor=none;fillColor=none;" parent="1" vertex="1">
          <mxGeometry x="427" y="295" width="60" height="30" as="geometry" />
        </mxCell>
        <mxCell id="MbUVOhgkBin-veVdJaiQ-59" value="" style="rounded=0;whiteSpace=wrap;html=1;fillColor=#d5e8d4;strokeColor=#82b366;" parent="1" vertex="1">
          <mxGeometry x="427" y="330" width="23" height="10" as="geometry" />
        </mxCell>
        <mxCell id="MbUVOhgkBin-veVdJaiQ-60" value="" style="rounded=0;whiteSpace=wrap;html=1;fillColor=#d5e8d4;strokeColor=#82b366;" parent="1" vertex="1">
          <mxGeometry x="427" y="350" width="53" height="10" as="geometry" />
        </mxCell>
        <mxCell id="MbUVOhgkBin-veVdJaiQ-61" value="" style="rounded=0;whiteSpace=wrap;html=1;fillColor=#d5e8d4;strokeColor=#82b366;" parent="1" vertex="1">
          <mxGeometry x="423.5" y="420" width="66.5" height="10" as="geometry" />
        </mxCell>
        <mxCell id="MbUVOhgkBin-veVdJaiQ-62" value="" style="rounded=0;whiteSpace=wrap;html=1;fillColor=#d5e8d4;strokeColor=#82b366;" parent="1" vertex="1">
          <mxGeometry x="425" y="440" width="25" height="10" as="geometry" />
        </mxCell>
        <mxCell id="MbUVOhgkBin-veVdJaiQ-64" value="" style="pointerEvents=1;verticalLabelPosition=bottom;shadow=0;dashed=0;align=center;html=1;verticalAlign=top;shape=mxgraph.electrical.waveforms.sine_wave;fillColor=#f8cecc;strokeColor=#b85450;" parent="1" vertex="1">
          <mxGeometry x="530" y="470" width="210" height="110" as="geometry" />
        </mxCell>
        <mxCell id="MbUVOhgkBin-veVdJaiQ-67" value="" style="endArrow=none;html=1;rounded=0;fillColor=#f8cecc;strokeColor=#b85450;" parent="1" edge="1">
          <mxGeometry width="50" height="50" relative="1" as="geometry">
            <mxPoint x="530" y="400" as="sourcePoint" />
            <mxPoint x="570" y="360" as="targetPoint" />
          </mxGeometry>
        </mxCell>
        <mxCell id="MbUVOhgkBin-veVdJaiQ-68" value="" style="endArrow=none;html=1;rounded=0;entryX=1;entryY=0.5;entryDx=0;entryDy=0;fillColor=#f8cecc;strokeColor=#b85450;" parent="1" target="MbUVOhgkBin-veVdJaiQ-24" edge="1">
          <mxGeometry width="50" height="50" relative="1" as="geometry">
            <mxPoint x="570" y="360" as="sourcePoint" />
            <mxPoint x="620" y="310" as="targetPoint" />
          </mxGeometry>
        </mxCell>
        <mxCell id="MbUVOhgkBin-veVdJaiQ-69" value="" style="endArrow=none;html=1;rounded=0;entryX=1;entryY=0.5;entryDx=0;entryDy=0;exitX=0;exitY=0.5;exitDx=0;exitDy=0;fillColor=#d5e8d4;strokeColor=#82b366;" parent="1" edge="1">
          <mxGeometry width="50" height="50" relative="1" as="geometry">
            <mxPoint x="530" y="354.76" as="sourcePoint" />
            <mxPoint x="740" y="354.76" as="targetPoint" />
            <Array as="points">
              <mxPoint x="540" y="354.76" />
            </Array>
          </mxGeometry>
        </mxCell>
        <mxCell id="MbUVOhgkBin-veVdJaiQ-71" value="Send Data" style="text;html=1;align=center;verticalAlign=middle;resizable=0;points=[];autosize=1;strokeColor=none;fillColor=none;" parent="1" vertex="1">
          <mxGeometry x="406.88" y="512.5" width="80" height="30" as="geometry" />
        </mxCell>
        <mxCell id="MbUVOhgkBin-veVdJaiQ-72" value="" style="ellipse;whiteSpace=wrap;html=1;aspect=fixed;fillColor=#dae8fc;strokeColor=#6c8ebf;" parent="1" vertex="1">
          <mxGeometry x="496.88" y="517.5" width="20" height="20" as="geometry" />
        </mxCell>
        <mxCell id="XPsTzEVTHhQ1RFCoqTpc-1" value="" style="rounded=0;whiteSpace=wrap;html=1;" vertex="1" parent="1">
          <mxGeometry x="355" y="760" width="530" height="300" as="geometry" />
        </mxCell>
        <mxCell id="XPsTzEVTHhQ1RFCoqTpc-2" value="" style="rounded=0;whiteSpace=wrap;html=1;fillColor=#fff2cc;strokeColor=#d6b656;" vertex="1" parent="1">
          <mxGeometry x="397.13" y="810" width="253" height="80" as="geometry" />
        </mxCell>
        <mxCell id="XPsTzEVTHhQ1RFCoqTpc-3" value="Speed Graph" style="rounded=0;whiteSpace=wrap;html=1;fillColor=#fff2cc;strokeColor=#d6b656;" vertex="1" parent="1">
          <mxGeometry x="397.26" y="925" width="252.87" height="90" as="geometry" />
        </mxCell>
        <mxCell id="XPsTzEVTHhQ1RFCoqTpc-4" value="Weights graph" style="rounded=0;whiteSpace=wrap;html=1;fillColor=#fff2cc;strokeColor=#d6b656;" vertex="1" parent="1">
          <mxGeometry x="660" y="810" width="210" height="200" as="geometry" />
        </mxCell>
        <mxCell id="XPsTzEVTHhQ1RFCoqTpc-5" value="Pitch" style="text;html=1;align=center;verticalAlign=middle;whiteSpace=wrap;rounded=0;" vertex="1" parent="1">
          <mxGeometry x="375" y="760" width="90" height="30" as="geometry" />
        </mxCell>
        <mxCell id="XPsTzEVTHhQ1RFCoqTpc-6" value="&lt;font style=&quot;font-size: 9px;&quot;&gt;Rotor 1&lt;/font&gt;" style="text;html=1;align=center;verticalAlign=middle;whiteSpace=wrap;rounded=0;" vertex="1" parent="1">
          <mxGeometry x="375" y="770" width="90" height="30" as="geometry" />
        </mxCell>
        <mxCell id="XPsTzEVTHhQ1RFCoqTpc-8" value="&lt;font style=&quot;font-size: 9px;&quot;&gt;Target :XXX&lt;/font&gt;" style="text;html=1;align=center;verticalAlign=middle;whiteSpace=wrap;rounded=0;" vertex="1" parent="1">
          <mxGeometry x="380" y="780" width="90" height="30" as="geometry" />
        </mxCell>
        <mxCell id="XPsTzEVTHhQ1RFCoqTpc-9" value="&lt;font style=&quot;font-size: 9px;&quot;&gt;Actual: XXX&lt;/font&gt;" style="text;html=1;align=center;verticalAlign=middle;whiteSpace=wrap;rounded=0;" vertex="1" parent="1">
          <mxGeometry x="440" y="780" width="90" height="30" as="geometry" />
        </mxCell>
        <mxCell id="XPsTzEVTHhQ1RFCoqTpc-10" value="Pitch" style="text;html=1;align=center;verticalAlign=middle;whiteSpace=wrap;rounded=0;" vertex="1" parent="1">
          <mxGeometry x="516.88" y="760" width="90" height="30" as="geometry" />
        </mxCell>
        <mxCell id="XPsTzEVTHhQ1RFCoqTpc-11" value="&lt;font style=&quot;font-size: 9px;&quot;&gt;Rotor 2&lt;/font&gt;" style="text;html=1;align=center;verticalAlign=middle;whiteSpace=wrap;rounded=0;" vertex="1" parent="1">
          <mxGeometry x="516.88" y="770" width="90" height="30" as="geometry" />
        </mxCell>
        <mxCell id="XPsTzEVTHhQ1RFCoqTpc-12" value="&lt;font style=&quot;font-size: 9px;&quot;&gt;Target :XXX&lt;/font&gt;" style="text;html=1;align=center;verticalAlign=middle;whiteSpace=wrap;rounded=0;" vertex="1" parent="1">
          <mxGeometry x="521.88" y="780" width="90" height="30" as="geometry" />
        </mxCell>
        <mxCell id="XPsTzEVTHhQ1RFCoqTpc-13" value="&lt;font style=&quot;font-size: 9px;&quot;&gt;Actual: XXX&lt;/font&gt;" style="text;html=1;align=center;verticalAlign=middle;whiteSpace=wrap;rounded=0;" vertex="1" parent="1">
          <mxGeometry x="575" y="780" width="90" height="30" as="geometry" />
        </mxCell>
        <mxCell id="XPsTzEVTHhQ1RFCoqTpc-14" value="Pitch GRAPH" style="text;html=1;align=center;verticalAlign=middle;whiteSpace=wrap;rounded=0;" vertex="1" parent="1">
          <mxGeometry x="415" y="830" width="90" height="30" as="geometry" />
        </mxCell>
        <mxCell id="XPsTzEVTHhQ1RFCoqTpc-19" value="Speed" style="text;html=1;align=center;verticalAlign=middle;whiteSpace=wrap;rounded=0;" vertex="1" parent="1">
          <mxGeometry x="375.13" y="890" width="90" height="30" as="geometry" />
        </mxCell>
        <mxCell id="XPsTzEVTHhQ1RFCoqTpc-21" value="&lt;font style=&quot;font-size: 9px;&quot;&gt;Target :XXX&lt;/font&gt;" style="text;html=1;align=center;verticalAlign=middle;whiteSpace=wrap;rounded=0;" vertex="1" parent="1">
          <mxGeometry x="381.13" y="900" width="90" height="30" as="geometry" />
        </mxCell>
        <mxCell id="XPsTzEVTHhQ1RFCoqTpc-22" value="&lt;font style=&quot;font-size: 9px;&quot;&gt;Actual: XXX&lt;/font&gt;" style="text;html=1;align=center;verticalAlign=middle;whiteSpace=wrap;rounded=0;" vertex="1" parent="1">
          <mxGeometry x="441.13" y="900" width="90" height="30" as="geometry" />
        </mxCell>
        <mxCell id="XPsTzEVTHhQ1RFCoqTpc-23" value="&lt;font style=&quot;font-size: 9px;&quot;&gt;Average: XXX&lt;/font&gt;" style="text;html=1;align=center;verticalAlign=middle;whiteSpace=wrap;rounded=0;" vertex="1" parent="1">
          <mxGeometry x="780" y="780" width="90" height="30" as="geometry" />
        </mxCell>
        <mxCell id="XPsTzEVTHhQ1RFCoqTpc-24" value="&lt;font style=&quot;font-size: 9px;&quot;&gt;Weights&lt;/font&gt;" style="text;html=1;align=center;verticalAlign=middle;whiteSpace=wrap;rounded=0;" vertex="1" parent="1">
          <mxGeometry x="660" y="770" width="90" height="30" as="geometry" />
        </mxCell>
        <mxCell id="XPsTzEVTHhQ1RFCoqTpc-25" value="USART log" style="rounded=0;whiteSpace=wrap;html=1;" vertex="1" parent="1">
          <mxGeometry x="685" y="1015" width="185" height="40" as="geometry" />
        </mxCell>
      </root>
    </mxGraphModel>
  </diagram>
</mxfile>
